<?xml version="1.0" encoding="iso-8859-1"?>
<!-- Generator: Adobe Illustrator 18.1.1, SVG Export Plug-In . SVG Version: 6.00 Build 0)  -->
<svg version="1.1" id="Capa_1" xmlns="http://www.w3.org/2000/svg" xmlns:xlink="http://www.w3.org/1999/xlink" x="0px" y="0px"
	 viewBox="0 0 33.719 33.719" style="enable-background:new 0 0 33.719 33.719;" xml:space="preserve">
<g>
	<path d="M6.632,29.093c0,0-0.008,0.273,0.345,0.271c0.354,0,3.188-0.002,3.687,0c0.495-0.002,0.407-0.326,0.407-0.326V8.88
		c0-2.445,1.988-4.436,4.435-4.436c0.067,0,0.215-0.004,0.215-0.004s0.07,0.004,0.111,0.004c2.446,0,4.436,1.986,4.436,4.436v16.25
		h-0.004c0,0.568,0,0.799,0,0.799s-1.52,0.006-2.146,0c-0.629,0-0.03,0.68-0.03,0.68l4.001,6.936c0,0,0.313,0.365,0.639,0.037
		c0.451-0.451,4.15-7.078,4.15-7.078s0.577-0.576-0.185-0.574c-0.767,0-1.985,0-1.985,0s0.001-0.33,0-0.838l0,0V8.88
		c0-4.906-3.971-8.879-8.875-8.879c-0.058,0-0.105-0.002-0.164,0c-0.049-0.002-0.111,0-0.162,0c-4.9,0-8.875,3.978-8.875,8.879
		V29.093z"/>
	<g>
	</g>
	<g>
	</g>
	<g>
	</g>
	<g>
	</g>
	<g>
	</g>
	<g>
	</g>
	<g>
	</g>
	<g>
	</g>
	<g>
	</g>
	<g>
	</g>
	<g>
	</g>
	<g>
	</g>
	<g>
	</g>
	<g>
	</g>
	<g>
	</g>
</g>
<g>
</g>
<g>
</g>
<g>
</g>
<g>
</g>
<g>
</g>
<g>
</g>
<g>
</g>
<g>
</g>
<g>
</g>
<g>
</g>
<g>
</g>
<g>
</g>
<g>
</g>
<g>
</g>
<g>
</g>
</svg>
